<svg width="245" height="93" viewBox="0 0 245 93" fill="none" xmlns="http://www.w3.org/2000/svg">
<path d="M110.28 50.04H132.64L130.64 57.6L112.68 73H128.44L126.84 79H101.96L103.48 73.32L123.24 56H108.72L110.28 50.04ZM137.998 50.04H160.038L158.478 56H144.638L143.118 61.68H156.038L154.398 67.68H141.478L139.998 73.32H153.838L152.318 79H130.278L137.998 50.04ZM164.756 50.04H172.956L166.836 73H179.756L178.156 79H157.036L164.756 50.04ZM184.406 64.84C185.019 62.8933 185.819 61.04 186.806 59.28C187.819 57.52 189.019 55.84 190.406 54.24C191.793 52.6667 193.619 51.48 195.886 50.68C198.153 49.88 200.859 49.48 204.006 49.48C204.059 49.48 204.099 49.48 204.126 49.48C204.153 49.48 204.193 49.48 204.246 49.48C204.273 49.48 204.299 49.48 204.326 49.48C204.379 49.48 204.419 49.48 204.446 49.48C204.499 49.48 204.539 49.48 204.566 49.48C204.593 49.48 204.633 49.48 204.686 49.48C204.713 49.48 204.739 49.48 204.766 49.48C204.819 49.48 204.859 49.48 204.886 49.48C206.593 49.56 208.166 49.8667 209.606 50.4C211.073 50.9333 212.393 51.7067 213.566 52.72C214.739 53.7333 215.419 55.24 215.606 57.24C215.819 59.2133 215.526 61.6667 214.726 64.6C214.619 65 214.499 65.4 214.366 65.8C214.259 66.2 214.126 66.6133 213.966 67.04C213.886 67.2533 213.793 67.4667 213.686 67.68C213.606 67.8933 213.526 68.1067 213.446 68.32C213.339 68.56 213.233 68.7867 213.126 69C213.019 69.2133 212.913 69.4267 212.806 69.64C212.139 70.92 211.313 72.1333 210.326 73.28C209.366 74.4267 208.233 75.52 206.926 76.56C205.619 77.6 204.073 78.3733 202.286 78.88C200.526 79.3867 198.499 79.64 196.206 79.64C193.166 79.64 190.726 79.2933 188.886 78.6C187.073 77.88 185.833 76.8 185.166 75.36C184.499 73.92 184.086 72.4133 183.926 70.84C183.766 69.24 183.859 67.56 184.206 65.8C184.206 65.7733 184.206 65.7467 184.206 65.72C184.233 65.6933 184.246 65.6533 184.246 65.6C184.246 65.5733 184.246 65.5467 184.246 65.52C184.273 65.4667 184.286 65.4267 184.286 65.4C184.313 65.32 184.326 65.24 184.326 65.16C184.353 65.08 184.379 65 184.406 64.92V64.84ZM193.006 64.52C192.686 65.7467 192.526 66.9067 192.526 68C192.526 69.0667 192.673 70.0933 192.966 71.08C193.259 72.0667 193.779 72.8133 194.526 73.32C195.273 73.8 196.233 74.04 197.406 74.04C198.419 74.04 199.366 73.8533 200.246 73.48C201.153 73.08 201.979 72.48 202.726 71.68C203.473 70.9067 204.139 69.9333 204.726 68.76C205.313 67.56 205.819 66.1733 206.246 64.6C206.593 63.3467 206.779 62.1733 206.806 61.08C206.859 59.96 206.739 58.9333 206.446 58C206.179 57.0667 205.686 56.36 204.966 55.88C204.246 55.4 203.299 55.16 202.126 55.16C200.953 55.16 199.886 55.4133 198.926 55.92C197.993 56.4 197.153 57.1333 196.406 58.12C195.659 59.1067 195.006 60.1467 194.446 61.24C193.886 62.3067 193.406 63.4267 193.006 64.6V64.52ZM216.564 69.56H224.764C224.738 69.6933 224.711 69.8267 224.684 69.96C224.658 70.0667 224.631 70.1867 224.604 70.32C224.578 70.3733 224.551 70.44 224.524 70.52C224.524 70.5733 224.524 70.6267 224.524 70.68C224.524 70.76 224.524 70.84 224.524 70.92C224.551 70.9733 224.564 71.0267 224.564 71.08C224.538 71.4267 224.578 71.7467 224.684 72.04C224.818 72.3333 225.004 72.6267 225.244 72.92C225.511 73.1867 225.871 73.3867 226.324 73.52C226.804 73.6533 227.378 73.72 228.044 73.72C228.764 73.72 229.418 73.6533 230.004 73.52C230.591 73.3867 231.098 73.1867 231.524 72.92C231.978 72.6267 232.351 72.32 232.644 72C232.938 71.68 233.138 71.3467 233.244 71C233.244 70.9733 233.244 70.9467 233.244 70.92C233.271 70.8933 233.284 70.8667 233.284 70.84C233.284 70.84 233.284 70.8267 233.284 70.8C233.284 70.7733 233.284 70.7467 233.284 70.72C233.311 70.6667 233.324 70.6133 233.324 70.56C233.324 70.5067 233.324 70.4533 233.324 70.4C233.298 70.1067 233.204 69.8133 233.044 69.52C232.884 69.2267 232.658 68.9467 232.364 68.68C232.044 68.3867 231.631 68.1467 231.124 67.96C230.644 67.7467 230.071 67.5733 229.404 67.44C229.378 67.44 229.351 67.44 229.324 67.44C229.298 67.44 229.271 67.44 229.244 67.44C229.218 67.44 229.191 67.44 229.164 67.44C229.138 67.4133 229.124 67.3867 229.124 67.36C227.098 66.9067 225.418 66.4133 224.084 65.88C222.778 65.32 221.818 64.7467 221.204 64.16C220.591 63.5467 220.191 62.7733 220.004 61.84C219.844 60.9067 219.884 59.8267 220.124 58.6C220.124 58.5733 220.124 58.56 220.124 58.56C220.151 58.5333 220.164 58.5067 220.164 58.48C220.164 58.4533 220.164 58.44 220.164 58.44C220.191 58.4133 220.204 58.3867 220.204 58.36C220.204 58.3333 220.204 58.32 220.204 58.32C220.231 58.2933 220.244 58.2667 220.244 58.24C220.244 58.2133 220.244 58.1867 220.244 58.16C220.618 56.7467 221.244 55.5067 222.124 54.44C223.031 53.3467 224.178 52.4267 225.564 51.68C226.951 50.96 228.418 50.4133 229.964 50.04C231.538 49.6667 233.178 49.48 234.884 49.48C237.204 49.56 239.084 49.84 240.524 50.32C241.964 50.7733 242.951 51.4267 243.484 52.28C244.018 53.1067 244.338 54.0533 244.444 55.12C244.551 56.1867 244.431 57.3467 244.084 58.6L235.924 58.52C236.058 58.0933 236.084 57.6933 236.004 57.32C235.951 56.9467 235.804 56.6133 235.564 56.32C235.298 56.0267 234.951 55.8133 234.524 55.68C234.098 55.52 233.578 55.44 232.964 55.44C232.404 55.44 231.884 55.5067 231.404 55.64C230.951 55.7733 230.538 55.9733 230.164 56.24C229.818 56.5067 229.524 56.7867 229.284 57.08C229.071 57.3467 228.924 57.64 228.844 57.96C228.818 57.9867 228.804 58.0133 228.804 58.04C228.804 58.0667 228.804 58.0933 228.804 58.12C228.778 58.1467 228.764 58.1733 228.764 58.2C228.764 58.2 228.764 58.2133 228.764 58.24C228.738 58.5067 228.764 58.7867 228.844 59.08C228.924 59.3467 229.071 59.6 229.284 59.84C229.498 60.1067 229.791 60.32 230.164 60.48C230.538 60.64 230.991 60.7467 231.524 60.8C231.818 60.8533 232.111 60.92 232.404 61C232.698 61.0533 232.991 61.1067 233.284 61.16C233.578 61.2133 233.884 61.28 234.204 61.36C234.524 61.4133 234.844 61.48 235.164 61.56C236.204 61.8267 237.178 62.1733 238.084 62.6C239.018 63.0267 239.884 63.5467 240.684 64.16C241.458 64.7467 241.951 65.5333 242.164 66.52C242.404 67.48 242.338 68.6267 241.964 69.96C241.511 71.6933 240.804 73.1867 239.844 74.44C238.884 75.6667 237.684 76.6667 236.244 77.44C234.804 78.1867 233.298 78.7333 231.724 79.08C230.151 79.4533 228.498 79.64 226.764 79.64C224.658 79.64 222.858 79.4267 221.364 79C219.898 78.6 218.751 77.9867 217.924 77.16C217.098 76.3067 216.564 75.2533 216.324 74C216.111 72.7467 216.178 71.2933 216.524 69.64L216.564 69.56Z" fill="black"/>
<path d="M105.08 31.56H113.28C113.253 31.6933 113.227 31.8267 113.2 31.96C113.173 32.0667 113.147 32.1867 113.12 32.32C113.093 32.3733 113.067 32.44 113.04 32.52C113.04 32.5733 113.04 32.6267 113.04 32.68C113.04 32.76 113.04 32.84 113.04 32.92C113.067 32.9733 113.08 33.0267 113.08 33.08C113.053 33.4267 113.093 33.7467 113.2 34.04C113.333 34.3333 113.52 34.6267 113.76 34.92C114.027 35.1867 114.387 35.3867 114.84 35.52C115.32 35.6533 115.893 35.72 116.56 35.72C117.28 35.72 117.933 35.6533 118.52 35.52C119.107 35.3867 119.613 35.1867 120.04 34.92C120.493 34.6267 120.867 34.32 121.16 34C121.453 33.68 121.653 33.3467 121.76 33C121.76 32.9733 121.76 32.9467 121.76 32.92C121.787 32.8933 121.8 32.8667 121.8 32.84C121.8 32.84 121.8 32.8267 121.8 32.8C121.8 32.7733 121.8 32.7467 121.8 32.72C121.827 32.6667 121.84 32.6133 121.84 32.56C121.84 32.5067 121.84 32.4533 121.84 32.4C121.813 32.1067 121.72 31.8133 121.56 31.52C121.4 31.2267 121.173 30.9467 120.88 30.68C120.56 30.3867 120.147 30.1467 119.64 29.96C119.16 29.7467 118.587 29.5733 117.92 29.44C117.893 29.44 117.867 29.44 117.84 29.44C117.813 29.44 117.787 29.44 117.76 29.44C117.733 29.44 117.707 29.44 117.68 29.44C117.653 29.4133 117.64 29.3867 117.64 29.36C115.613 28.9067 113.933 28.4133 112.6 27.88C111.293 27.32 110.333 26.7467 109.72 26.16C109.107 25.5467 108.707 24.7733 108.52 23.84C108.36 22.9067 108.4 21.8267 108.64 20.6C108.64 20.5733 108.64 20.56 108.64 20.56C108.667 20.5333 108.68 20.5067 108.68 20.48C108.68 20.4533 108.68 20.44 108.68 20.44C108.707 20.4133 108.72 20.3867 108.72 20.36C108.72 20.3333 108.72 20.32 108.72 20.32C108.747 20.2933 108.76 20.2667 108.76 20.24C108.76 20.2133 108.76 20.1867 108.76 20.16C109.133 18.7467 109.76 17.5067 110.64 16.44C111.547 15.3467 112.693 14.4267 114.08 13.68C115.467 12.96 116.933 12.4133 118.48 12.04C120.053 11.6667 121.693 11.48 123.4 11.48C125.72 11.56 127.6 11.84 129.04 12.32C130.48 12.7733 131.467 13.4267 132 14.28C132.533 15.1067 132.853 16.0533 132.96 17.12C133.067 18.1867 132.947 19.3467 132.6 20.6L124.44 20.52C124.573 20.0933 124.6 19.6933 124.52 19.32C124.467 18.9467 124.32 18.6133 124.08 18.32C123.813 18.0267 123.467 17.8133 123.04 17.68C122.613 17.52 122.093 17.44 121.48 17.44C120.92 17.44 120.4 17.5067 119.92 17.64C119.467 17.7733 119.053 17.9733 118.68 18.24C118.333 18.5067 118.04 18.7867 117.8 19.08C117.587 19.3467 117.44 19.64 117.36 19.96C117.333 19.9867 117.32 20.0133 117.32 20.04C117.32 20.0667 117.32 20.0933 117.32 20.12C117.293 20.1467 117.28 20.1733 117.28 20.2C117.28 20.2 117.28 20.2133 117.28 20.24C117.253 20.5067 117.28 20.7867 117.36 21.08C117.44 21.3467 117.587 21.6 117.8 21.84C118.013 22.1067 118.307 22.32 118.68 22.48C119.053 22.64 119.507 22.7467 120.04 22.8C120.333 22.8533 120.627 22.92 120.92 23C121.213 23.0533 121.507 23.1067 121.8 23.16C122.093 23.2133 122.4 23.28 122.72 23.36C123.04 23.4133 123.36 23.48 123.68 23.56C124.72 23.8267 125.693 24.1733 126.6 24.6C127.533 25.0267 128.4 25.5467 129.2 26.16C129.973 26.7467 130.467 27.5333 130.68 28.52C130.92 29.48 130.853 30.6267 130.48 31.96C130.027 33.6933 129.32 35.1867 128.36 36.44C127.4 37.6667 126.2 38.6667 124.76 39.44C123.32 40.1867 121.813 40.7333 120.24 41.08C118.667 41.4533 117.013 41.64 115.28 41.64C113.173 41.64 111.373 41.4267 109.88 41C108.413 40.6 107.267 39.9867 106.44 39.16C105.613 38.3067 105.08 37.2533 104.84 36C104.627 34.7467 104.693 33.2933 105.04 31.64L105.08 31.56ZM140.185 12.04H162.225L160.665 18H146.825L145.305 23.68H158.225L156.585 29.68H143.665L142.185 35.32H156.025L154.505 41H132.465L140.185 12.04ZM166.943 12.04H178.263L182.343 33.44L188.063 12.04H195.303L187.583 41H176.223L172.263 19.28L166.463 41H159.223L166.943 12.04ZM209.462 12.04H219.222L222.862 41H213.742L213.222 35.64H201.902L198.622 41H190.102L209.462 12.04ZM212.622 29.68L212.342 18L205.382 29.68H212.622ZM233.74 12.04H241.94L234.22 41H226.02L233.74 12.04Z" fill="#E31B23"/>
<path fill-rule="evenodd" clip-rule="evenodd" d="M80.53 41.7323L91.4514 43.5173C92.346 43.6628 93.0016 44.4353 93 45.341V55.5038C93 56.4001 92.3567 57.1688 91.4716 57.3239L80.5353 59.2438C79.9015 61.4352 79.0313 63.5459 77.9353 65.5413L69.5 63.4349C70.0302 64.1701 72.6396 69.8588 72 70.5L68.5 74.5162C67.8646 75.15 65.6868 74.3111 63.4359 74.5162L65.5886 77.9401C63.5895 79.0526 61.4661 79.9398 59.2502 80.5916L57.3191 91.4753C57.164 92.3572 56.3969 93 55.5007 93H45.3368C44.4331 93 43.6623 92.3476 43.5167 91.4588L41.7126 80.6288C39.5008 79.9897 37.3663 79.1078 35.3465 77.9975L26.3468 84.3002C25.6132 84.8161 24.6134 84.7274 23.9795 84.0936L16.7946 76.9037C16.157 76.2624 16.0738 75.2552 16.5987 74.5215L22.9576 65.6284C21.8359 63.599 20.9451 61.4576 20.3002 59.2348L9.52458 57.3239C8.64308 57.1672 8 56.4001 8 55.5038V45.341C8 44.439 8.65418 43.6665 9.54493 43.5188L20.3205 41.7248C20.9692 39.4962 21.8599 37.3546 22.978 35.3312C22.978 35.3312 25.8034 37.1548 28.5 33.5C31.1966 29.8452 32.8662 34.1338 33.5 33.5L35.3465 32C35.9878 31.3625 37.7626 31.4734 38.5 32C39.2374 32.5266 35.3945 22.9766 35.3945 22.9766C37.3996 21.879 39.5285 21.005 41.7461 20.3675L43.513 9.55035C43.6586 8.65599 44.431 8 45.3368 8H55.5007C56.399 8 57.1656 8.64674 57.3207 9.53L59.2263 20.4063C61.431 21.0475 63.556 21.9308 65.5684 23.0431L74.5183 16.6109C75.2536 16.0805 76.263 16.1637 76.9042 16.803L84.0909 23.9855C84.7247 24.6212 84.8134 25.6209 84.2976 26.3545L77.9221 35.4402C79.0164 37.434 79.8903 39.5405 80.53 41.7323ZM37.5641 50.5C37.5641 57.6437 43.3558 63.4349 50.5 63.4349C57.6442 63.4349 63.4359 57.6437 63.4359 50.5C63.4359 43.3563 57.6442 37.5652 50.5 37.5652C43.3558 37.5652 37.5641 43.3563 37.5641 50.5Z" fill="#848FA5"/>
<path d="M19.6036 0.767067C17.981 1.16956 17.4312 3.20003 18.6135 4.38237L31.9751 17.7439L29.9428 29.941L17.7456 31.9733L4.3841 18.6118C3.19457 17.4223 1.1677 17.9955 0.761608 19.6288C-1.34792 28.1424 0.925123 37.5167 7.57714 44.1705C14.6999 51.2933 25.0248 53.2536 34.0271 50.2888L72.3705 88.6322C76.8609 93.1226 84.1418 93.1226 88.6322 88.6322C93.1226 84.1418 93.1226 76.8609 88.6322 72.3705L50.3211 34.0595C53.3237 25.0536 51.3417 14.7485 44.1722 7.57899C37.5112 0.917999 28.1226 -1.35145 19.6036 0.767067ZM84.8121 80.4996C84.8121 82.8804 82.8804 84.8121 80.4996 84.8121C78.1169 84.8121 76.1871 82.8804 76.1871 80.4996C76.1871 78.1187 78.1169 76.1871 80.4996 76.1871C82.8804 76.1871 84.8121 78.1187 84.8121 80.4996Z" fill="white"/>
<path d="M19.9644 1.74205C18.3947 2.13142 17.8628 4.09567 19.0066 5.23946L31.9324 18.1653L29.9664 29.9647L18.167 31.9307L5.24114 19.0049C4.0904 17.8541 2.12962 18.4086 1.73677 19.9887C-0.303966 28.2247 1.89496 37.2933 8.33006 43.7301C15.2206 50.6207 25.2087 52.5171 33.9175 49.649L71.0106 86.742C75.3546 91.086 82.3981 91.086 86.742 86.742C91.086 82.3981 91.086 75.3546 86.742 71.0106L49.6802 33.9488C52.5849 25.2366 50.6676 15.2676 43.7318 8.33186C37.288 1.88806 28.2055 -0.307381 19.9644 1.74205ZM83.0465 78.8746C83.0465 81.1778 81.1778 83.0465 78.8746 83.0465C76.5696 83.0465 74.7027 81.1778 74.7027 78.8746C74.7027 76.5714 76.5696 74.7027 78.8746 74.7027C81.1778 74.7027 83.0465 76.5714 83.0465 78.8746Z" fill="#848FA5"/>
</svg>
